<svg width="36" height="56" viewBox="0 0 36 56" fill="none" xmlns="http://www.w3.org/2000/svg">
<path opacity="0.3" d="M4.56 53.192C7.068 53.192 8.724 51.392 8.724 48.728C8.724 46.064 7.068 44.264 4.56 44.264C2.04 44.264 0.384 46.064 0.384 48.728C0.384 51.392 2.04 53.192 4.56 53.192ZM4.56 52.04C2.844 52.04 1.716 50.768 1.716 48.728C1.716 46.688 2.844 45.416 4.56 45.416C6.264 45.416 7.392 46.688 7.392 48.728C7.392 50.768 6.264 52.04 4.56 52.04ZM15.3215 48.536C16.0295 48.152 16.4495 47.528 16.4495 46.676C16.4495 45.488 15.6455 44.456 13.7735 44.456H10.0895V53H13.9415C15.8495 53 16.7975 52.028 16.7975 50.576C16.7975 49.724 16.3535 48.92 15.3215 48.536ZM13.6895 45.56C14.6975 45.56 15.1895 46.064 15.1895 46.784C15.1895 47.612 14.6975 48.116 13.6895 48.116H11.3735V45.56H13.6895ZM13.8695 51.896H11.3735V49.184H13.8695C14.8895 49.184 15.5015 49.604 15.5015 50.552C15.5015 51.392 14.9495 51.896 13.8695 51.896ZM24.5921 51.956L24.5081 50.624C24.4721 49.736 24.1601 49.136 23.2841 48.884C24.1721 48.596 24.7241 47.888 24.7241 46.82C24.7241 45.332 23.5841 44.456 21.7841 44.456H18.0521V53H19.3361V49.484H21.8201C22.7681 49.484 23.2241 49.844 23.2721 50.996L23.3081 51.908C23.3201 52.352 23.3801 52.736 23.5601 53H24.8801C24.7001 52.724 24.6161 52.328 24.5921 51.956ZM21.8081 48.416H19.3361V45.56H21.7121C22.7441 45.56 23.4041 45.992 23.4041 46.94C23.4041 47.924 22.7441 48.416 21.8081 48.416ZM32.1072 44.456H25.1352V45.608H27.9672V53H29.2752V45.608H32.1072V44.456ZM33.2157 53H34.4997V44.456H33.2157V53Z" fill="black"/>
<circle cx="22" cy="9.5" r="8" fill="white" stroke="#1F212B" stroke-linecap="round" stroke-linejoin="round"/>
<path d="M0.5 30H31.4375" stroke="#1F212B" stroke-linecap="round"/>
<path d="M3.3125 12V30H18.7812V12H3.3125Z" fill="white" stroke="#1F212B" stroke-linecap="round" stroke-linejoin="round"/>
<path d="M22 17V30" stroke="#313340"/>
</svg>
