<svg width="40" height="40" viewBox="0 0 40 40" fill="none" xmlns="http://www.w3.org/2000/svg">
<g opacity="0.9">
<path d="M5 16.6666C5 11.9526 5 9.59556 6.46447 8.13109C7.92893 6.66663 10.286 6.66663 15 6.66663H25C29.714 6.66663 32.0711 6.66663 33.5355 8.13109C35 9.59556 35 11.9526 35 16.6666V23.3333C35 28.0473 35 30.4044 33.5355 31.8688C32.0711 33.3333 29.714 33.3333 25 33.3333H15C10.286 33.3333 7.92893 33.3333 6.46447 31.8688C5 30.4044 5 28.0473 5 23.3333V16.6666Z" stroke="#313340"/>
<path d="M13.3334 6.66663H14.1946C15.3974 6.66663 15.9988 6.66663 16.4821 6.96532C16.9654 7.26402 17.2344 7.80194 17.7723 8.87777L20.5611 14.4555C21.0991 15.5313 21.368 16.0692 21.8513 16.3679C22.3346 16.6666 22.936 16.6666 24.1388 16.6666H31C32.8857 16.6666 33.8285 16.6666 34.4143 17.2524C35 17.8382 35 18.781 35 20.6666V26.6666" stroke="#313340"/>
</g>
</svg>
