<svg width="40" height="40" viewBox="0 0 40 40" fill="none" xmlns="http://www.w3.org/2000/svg">
<g opacity="0.9">
<path fill-rule="evenodd" clip-rule="evenodd" d="M31.2347 15.3217C30.0018 12.3644 27.6353 9.99793 24.6779 8.76515C24.4676 9.02972 24.2855 9.31763 24.136 9.62436C26.9763 10.7576 29.2422 13.0233 30.3755 15.8636C30.6823 15.7141 30.9702 15.532 31.2347 15.3217ZM20.14 8.83424C20.0934 8.83366 20.0468 8.83337 20 8.83337C13.8329 8.83337 8.83337 13.8329 8.83337 20C8.83337 26.1672 13.8329 31.1667 20 31.1667C26.1672 31.1667 31.1667 26.1672 31.1667 20C31.1667 19.9532 31.1664 19.9063 31.1658 19.8596C31.5054 19.7422 31.8354 19.6043 32.1544 19.4474C32.1626 19.6306 32.1667 19.8148 32.1667 20C32.1667 26.7195 26.7195 32.1667 20 32.1667C13.2806 32.1667 7.83337 26.7195 7.83337 20C7.83337 13.2806 13.2806 7.83337 20 7.83337C20.1851 7.83337 20.3691 7.83751 20.5522 7.84568C20.3952 8.16464 20.2574 8.49465 20.14 8.83424Z" fill="#313340"/>
<ellipse cx="28.3334" cy="11.6666" rx="5" ry="5" fill="#313340"/>
</g>
</svg>
