<svg width="47" height="56" viewBox="0 0 47 56" fill="none" xmlns="http://www.w3.org/2000/svg">
<path opacity="0.3" d="M7.188 44.456H0.216V45.608H3.048V53H4.356V45.608H7.188V44.456ZM14.1399 44.456L12.3879 49.424C12.1239 50.204 11.8599 50.996 11.6199 51.776C11.3919 50.996 11.1279 50.204 10.8519 49.424L9.06394 44.456H7.70794L10.8879 53H12.3519L15.4719 44.456H14.1399ZM23.0335 51.956L22.9495 50.624C22.9135 49.736 22.6015 49.136 21.7255 48.884C22.6135 48.596 23.1655 47.888 23.1655 46.82C23.1655 45.332 22.0255 44.456 20.2255 44.456H16.4935V53H17.7775V49.484H20.2615C21.2095 49.484 21.6655 49.844 21.7135 50.996L21.7495 51.908C21.7615 52.352 21.8215 52.736 22.0015 53H23.3215C23.1415 52.724 23.0575 52.328 23.0335 51.956ZM20.2495 48.416H17.7775V45.56H20.1535C21.1855 45.56 21.8455 45.992 21.8455 46.94C21.8455 47.924 21.1855 48.416 20.2495 48.416ZM30.5486 44.456H23.5766V45.608H26.4086V53H27.7166V45.608H30.5486V44.456ZM38.9411 44.456H37.3091L32.9411 48.74V44.456H31.6571V53H32.9411V50.228L34.4291 48.8L37.3931 53H38.9411L35.3531 47.936L38.9411 44.456ZM45.997 45.608V44.456H39.901V53H45.961V51.848H41.185V49.148H45.541V48.02H41.185V45.608H45.997Z" fill="black"/>
<path d="M0.5 29.9688H31.4375" stroke="#1F212B" stroke-linecap="round"/>
<path d="M3.3125 29.5624V11.2812H18.7812V29.5624" stroke="#1F212B" stroke-linecap="round" stroke-linejoin="round"/>
<path d="M13.1562 11V1.84375L28.625 6.0625V29.9688" stroke="#1F212B" stroke-linecap="round" stroke-linejoin="round"/>
</svg>
